<?xml version="1.0" encoding="UTF-8"?>
<svg xmlns="http://www.w3.org/2000/svg" width="171" height="39" viewBox="0 0 171 39" fill="none">
  <path d="M64.4814 30.8085C62.7862 30.8085 61.2152 30.5116 59.7684 29.9177C58.3324 29.3131 57.0745 28.4763 55.9948 27.4074C54.9259 26.3385 54.0945 25.086 53.5006 23.65C52.9068 22.2139 52.6099 20.6591 52.6099 18.9856C52.6099 17.3012 52.9068 15.741 53.5006 14.305C54.0945 12.8689 54.9259 11.6165 55.9948 10.5475C57.0745 9.4786 58.3324 8.64722 59.7684 8.05337C61.2152 7.45952 62.7862 7.1626 64.4814 7.1626C66.1658 7.1626 67.726 7.46492 69.162 8.06956C70.598 8.67421 71.8559 9.51639 72.9356 10.5961C74.0154 11.6758 74.8521 12.9337 75.446 14.3697C76.0506 15.795 76.353 17.3336 76.353 18.9856C76.353 20.6591 76.0506 22.2139 75.446 23.65C74.8521 25.086 74.0154 26.3385 72.9356 27.4074C71.8559 28.4763 70.598 29.3131 69.162 29.9177C67.726 30.5116 66.1658 30.8085 64.4814 30.8085ZM64.4814 27.9095C65.7015 27.9095 66.8352 27.6989 67.8825 27.2778C68.9407 26.8567 69.8638 26.2575 70.652 25.4801C71.4402 24.6919 72.0557 23.7471 72.4983 22.6458C72.9518 21.5445 73.1786 20.3244 73.1786 18.9856C73.1786 17.1824 72.7899 15.6114 72.0125 14.2726C71.2459 12.9337 70.2039 11.8972 68.8867 11.163C67.5694 10.418 66.101 10.0455 64.4814 10.0455C63.2613 10.0455 62.1222 10.2614 61.0641 10.6933C60.0168 11.1144 59.0936 11.719 58.2946 12.5072C57.5064 13.2846 56.891 14.224 56.4483 15.3253C56.0056 16.4158 55.7842 17.6359 55.7842 18.9856C55.7842 20.7779 56.1675 22.3435 56.9342 23.6823C57.7115 25.0212 58.7589 26.0631 60.0761 26.8081C61.3934 27.5424 62.8618 27.9095 64.4814 27.9095Z" fill="white"></path>
  <path d="M78.2959 37.1249V14.4507H81.033V16.8315C81.6917 15.9893 82.5177 15.3037 83.511 14.7746C84.5151 14.2348 85.7784 13.9648 87.3008 13.9648C88.8772 13.9648 90.2647 14.3374 91.4632 15.0824C92.6616 15.8166 93.5956 16.8207 94.265 18.0948C94.9453 19.3689 95.2854 20.7995 95.2854 22.3867C95.2854 23.542 95.091 24.6325 94.7023 25.6582C94.3244 26.6732 93.7792 27.5693 93.0665 28.3467C92.3539 29.1133 91.5063 29.718 90.5238 30.1607C89.552 30.5926 88.4669 30.8085 87.2684 30.8085C85.9296 30.8085 84.7581 30.5602 83.7539 30.0635C82.7606 29.556 81.9292 28.892 81.2598 28.0714V37.1249H78.2959ZM86.7664 28.12C87.8353 28.12 88.78 27.8879 89.6006 27.4236C90.432 26.9485 91.0798 26.2845 91.5441 25.4315C92.0192 24.5677 92.2567 23.5528 92.2567 22.3867C92.2567 21.2098 92.0192 20.1948 91.5441 19.3419C91.0798 18.4781 90.432 17.8141 89.6006 17.3498C88.78 16.8855 87.8353 16.6534 86.7664 16.6534C85.6974 16.6534 84.7473 16.8855 83.9159 17.3498C83.0953 17.8141 82.4475 18.4781 81.9724 19.3419C81.4973 20.1948 81.2598 21.2098 81.2598 22.3867C81.2598 23.5528 81.4973 24.5677 81.9724 25.4315C82.4475 26.2845 83.0953 26.9485 83.9159 27.4236C84.7473 27.8879 85.6974 28.12 86.7664 28.12Z" fill="white"></path>
  <path d="M104.048 30.8085C102.364 30.8085 100.879 30.4576 99.5945 29.7558C98.3096 29.054 97.3055 28.0768 96.582 26.8243C95.8586 25.5611 95.4969 24.0926 95.4969 22.4191C95.4969 21.2098 95.7021 20.0869 96.1124 19.0503C96.5335 18.0138 97.1165 17.1176 97.8615 16.3618C98.6173 15.606 99.4973 15.0176 100.501 14.5965C101.516 14.1754 102.618 13.9648 103.805 13.9648C105.09 13.9648 106.235 14.1916 107.239 14.6451C108.254 15.0986 109.091 15.7356 109.749 16.5562C110.419 17.366 110.899 18.3215 111.191 19.4228C111.482 20.5134 111.542 21.7011 111.369 22.9859H98.4446C98.4122 24.0441 98.6281 24.9726 99.0924 25.7716C99.5567 26.5598 100.226 27.1752 101.101 27.6179C101.986 28.0606 103.033 28.282 104.243 28.282C105.128 28.282 105.992 28.1416 106.834 27.8609C107.676 27.5801 108.421 27.1644 109.069 26.6138L110.332 28.8326C109.814 29.2537 109.199 29.6154 108.486 29.9177C107.784 30.2093 107.05 30.4306 106.283 30.5818C105.517 30.7329 104.772 30.8085 104.048 30.8085ZM98.6065 20.6699H108.389C108.346 19.3311 107.93 18.2891 107.142 17.5441C106.354 16.7883 105.225 16.4104 103.757 16.4104C102.332 16.4104 101.155 16.7883 100.226 17.5441C99.2975 18.2891 98.7577 19.3311 98.6065 20.6699Z" fill="white"></path>
  <path d="M112.954 30.3226V14.4507H115.934V16.5886C116.614 15.66 117.408 14.9906 118.315 14.5803C119.222 14.17 120.15 13.9648 121.1 13.9648C122.536 13.9648 123.724 14.2564 124.663 14.8394C125.613 15.4117 126.321 16.1459 126.785 17.0421C127.26 17.9382 127.498 18.856 127.498 19.7953V30.3226H124.518V20.7185C124.518 19.52 124.145 18.5591 123.4 17.8356C122.655 17.1014 121.64 16.7343 120.355 16.7343C119.513 16.7343 118.757 16.9233 118.088 17.3012C117.429 17.6683 116.906 18.192 116.517 18.8722C116.128 19.5524 115.934 20.3352 115.934 21.2206V30.3226H112.954Z" fill="white"></path>
  <path d="M140.941 30.8085C138.598 30.8085 136.547 30.3226 134.787 29.3509C133.038 28.3683 131.677 26.9917 130.706 25.2209C129.745 23.4394 129.264 21.3609 129.264 18.9856C129.264 17.2688 129.55 15.6924 130.123 14.2564C130.695 12.8095 131.505 11.5571 132.552 10.4989C133.599 9.44081 134.836 8.62022 136.261 8.03717C137.697 7.45412 139.262 7.1626 140.958 7.1626C142.631 7.1626 144.094 7.37314 145.347 7.79424C146.599 8.20453 147.679 8.79298 148.586 9.55958L146.966 12.0537C146.232 11.3951 145.379 10.9038 144.407 10.5799C143.436 10.256 142.361 10.094 141.184 10.094C139.856 10.094 138.652 10.2992 137.573 10.7095C136.493 11.1198 135.57 11.7136 134.803 12.491C134.047 13.2576 133.464 14.1862 133.054 15.2767C132.644 16.3672 132.439 17.5927 132.439 18.9532C132.439 20.8319 132.8 22.4353 133.524 23.7633C134.258 25.0914 135.294 26.1063 136.633 26.8081C137.972 27.4992 139.554 27.8447 141.379 27.8447C142.556 27.8447 143.684 27.6719 144.764 27.3264C145.854 26.9701 146.874 26.3924 147.825 25.5935L149.25 28.1848C148.138 29.0594 146.891 29.718 145.509 30.1607C144.137 30.5926 142.615 30.8085 140.941 30.8085Z" fill="white"></path>
  <path d="M156.692 30.3226V10.4504H150.198V7.64847H166.232V10.4504H159.737V30.3226H156.692Z" fill="white"></path>
  <path d="M167.955 30.3226V7.64847H171V30.3226H167.955Z" fill="white"></path>
  <path fill-rule="evenodd" clip-rule="evenodd" d="M35.3069 37.8572L0 2.55036L1.70124 0.849121L37.0081 36.156L35.3069 37.8572Z" fill="#0FBCFF"></path>
  <path fill-rule="evenodd" clip-rule="evenodd" d="M0 36.156L35.3069 0.849121L37.0081 2.55036L1.70124 37.8572L0 36.156Z" fill="#0FBCFF"></path>
  <path fill-rule="evenodd" clip-rule="evenodd" d="M28.7097 2.55066L18.4362 12.8206L8.1709 2.55028L9.87259 0.849497L18.4367 9.41818L27.0088 0.849121L28.7097 2.55066Z" fill="#0FBCFF"></path>
  <path fill-rule="evenodd" clip-rule="evenodd" d="M18.4794 25.8989L19.3416 26.7612L28.7395 36.1558L27.0386 37.8573L18.4797 29.3014L9.92551 37.8571L8.22412 36.156L18.4794 25.8989Z" fill="#0FBCFF"></path>
  <path d="M20.1672 2.89011L18.3279 1.05078L16.4886 2.89011L18.3279 4.72944L20.1672 2.89011Z" fill="#0FBCFF"></path>
  <path d="M20.1687 36.1718L18.3293 34.3325L16.49 36.1719L18.3293 38.0112L20.1687 36.1718Z" fill="#0FBCFF"></path>
</svg>
